<svg width="25" height="18" viewBox="0 0 25 18" fill="none" xmlns="http://www.w3.org/2000/svg">
<path d="M23.9963 11.8008C23.8516 11.7647 23.701 11.7567 23.5532 11.7773C23.4053 11.7978 23.2631 11.8465 23.1347 11.9206C23.0063 11.9947 22.8943 12.0926 22.805 12.2089C22.7158 12.3251 22.6511 12.4574 22.6146 12.5979C22.4066 13.3771 21.913 14.0559 21.2263 14.5071C20.5397 14.9583 19.7071 15.1509 18.8845 15.0489C18.062 14.9469 17.3061 14.5572 16.7583 13.953C16.2106 13.3487 15.9086 12.5712 15.9091 11.7664V10.6633H23.8636C24.0129 10.6633 24.1607 10.6348 24.2986 10.5794C24.4364 10.524 24.5617 10.4427 24.6673 10.3403C24.7728 10.2379 24.8565 10.1163 24.9136 9.98241C24.9707 9.84857 25 9.70511 25 9.56025C25 8.83597 24.853 8.11878 24.5675 7.44964C24.282 6.7805 23.8634 6.1725 23.3358 5.66036C22.8082 5.14822 22.1819 4.74196 21.4925 4.4648C20.8032 4.18763 20.0643 4.04497 19.3182 4.04497C18.572 4.04497 17.8332 4.18763 17.1438 4.4648C16.4545 4.74196 15.8281 5.14822 15.3005 5.66036C14.7729 6.1725 14.3544 6.7805 14.0689 7.44964C13.7833 8.11878 13.6364 8.83597 13.6364 9.56025V11.7664C13.6359 13.109 14.1402 14.4056 15.0545 15.413C15.9689 16.4204 17.2305 17.0693 18.6027 17.238C19.9749 17.4067 21.3633 17.0835 22.5075 16.3292C23.6518 15.5749 24.4731 14.4412 24.8174 13.1409C24.8542 13.0005 24.8622 12.8545 24.8408 12.7112C24.8195 12.5679 24.7692 12.4301 24.693 12.3056C24.6167 12.1812 24.5159 12.0725 24.3964 11.9859C24.2768 11.8993 24.1409 11.8364 23.9963 11.8008ZM19.3182 6.25108C20.2197 6.25141 21.0847 6.5971 21.7252 7.21302C22.0808 7.56604 22.3519 7.99085 22.5191 8.45719H16.1185C16.352 7.81383 16.7849 7.25638 17.3578 6.86138C17.9307 6.46638 18.6155 6.25319 19.3182 6.25108ZM17.0455 2.94191H21.5909C21.8923 2.94191 22.1813 2.8257 22.3944 2.61884C22.6075 2.41197 22.7273 2.13141 22.7273 1.83886C22.7273 1.54631 22.6075 1.26574 22.3944 1.05888C22.1813 0.852018 21.8923 0.735804 21.5909 0.735804H17.0455C16.7441 0.735804 16.455 0.852018 16.2419 1.05888C16.0288 1.26574 15.9091 1.54631 15.9091 1.83886C15.9091 2.13141 16.0288 2.41197 16.2419 2.61884C16.455 2.8257 16.7441 2.94191 17.0455 2.94191ZM10.1341 8.1452C10.7406 7.51904 11.1447 6.73409 11.2966 5.88739C11.4484 5.04068 11.3414 4.16934 10.9886 3.38106C10.6358 2.59279 10.0528 1.92214 9.31161 1.45201C8.57043 0.981882 7.70357 0.732888 6.81818 0.735804H1.13636C0.987123 0.735765 0.839337 0.764269 0.701448 0.819689C0.56356 0.875109 0.438272 0.956358 0.332743 1.05879C0.227214 1.16123 0.143512 1.28285 0.0864184 1.41669C0.0293251 1.55054 -4.02699e-05 1.69399 4.14467e-08 1.83886V16.1786C-3.87762e-05 16.3234 0.0293277 16.4669 0.0864216 16.6007C0.143515 16.7346 0.227218 16.8562 0.332747 16.9586C0.438276 17.0611 0.563563 17.1423 0.70145 17.1977C0.839338 17.2532 0.987123 17.2817 1.13636 17.2816H7.38636C8.4922 17.2836 9.56878 16.9369 10.4541 16.2937C11.3395 15.6505 11.9857 14.7457 12.2956 13.7152C12.6055 12.6848 12.5623 11.5846 12.1725 10.5801C11.7827 9.57555 11.0673 8.72108 10.1341 8.1452ZM2.27273 2.94191H6.81818C7.42095 2.94191 7.99902 3.17434 8.42524 3.58807C8.85146 4.0018 9.09091 4.56293 9.09091 5.14802C9.09091 5.73312 8.85146 6.29425 8.42524 6.70798C7.99902 7.12171 7.42095 7.35414 6.81818 7.35414H2.27273V2.94191ZM7.38636 15.0755H2.27273V9.56025H7.38636C8.13982 9.56025 8.86242 9.85078 9.39519 10.3679C9.92796 10.8851 10.2273 11.5865 10.2273 12.3179C10.2273 13.0493 9.92796 13.7507 9.39519 14.2678C8.86242 14.785 8.13982 15.0755 7.38636 15.0755Z" fill="#999999"/>
</svg>
