<svg width="17" height="17" viewBox="0 0 17 17" fill="none" xmlns="http://www.w3.org/2000/svg">
<path fill-rule="evenodd" clip-rule="evenodd" d="M5.85471 13.5V6.14805H3.49573V13.5H5.85471ZM4.76331 5.03516C5.54963 5.03516 6.03948 4.47227 6.03948 3.76758C6.02659 3.05 5.54963 2.5 4.7762 2.5C4.00276 2.5 3.50002 3.05 3.50002 3.76758C3.50002 4.47227 3.98987 5.03516 4.74612 5.03516H4.76331Z" fill="#999999"/>
<path fill-rule="evenodd" clip-rule="evenodd" d="M11.7758 5.98047C10.5254 5.98047 9.98828 6.68516 9.64453 7.175V6.15234H7.28125V13.5H9.64453V9.31484C9.64453 9.1 9.66172 8.88516 9.72617 8.73477C9.89805 8.30508 10.2848 7.8625 10.9379 7.8625C11.793 7.8625 12.1367 8.51992 12.1367 9.48242V13.5H14.5V9.20742C14.5 7.00313 13.3313 5.98047 11.7758 5.98047Z" fill="#999999"/>
<path d="M15.6405 0H1.45246C0.677519 0 0 0.557958 0 1.32404V15.5431C0 16.3136 0.677519 17 1.45246 17H15.6361C16.4154 17 17 16.3092 17 15.5431V1.32404C17.0044 0.557958 16.4154 0 15.6405 0ZM15.4988 15.5874H1.55431C1.4746 15.5874 1.41703 15.5254 1.41703 15.4501V1.5056C1.41703 1.45689 1.46132 1.41704 1.5056 1.41704H15.4988C15.5431 1.41704 15.5874 1.46132 15.5874 1.5056V15.4988C15.5874 15.5387 15.5475 15.5874 15.4988 15.5874Z" fill="#999999"/>
</svg>
